<svg width="60" height="60" viewBox="0 0 60 60" fill="none" xmlns="http://www.w3.org/2000/svg">
<path d="M56.9053 9.47368H50.5263V3.09474C50.5263 1.38947 49.1368 0 47.4316 0H47.3368C45.6 0 44.2105 1.38947 44.2105 3.09474V9.47368H37.8632C36.1579 9.47368 34.7684 10.8632 34.7368 12.5684V12.6632C34.7368 14.4 36.1263 15.7895 37.8632 15.7895H44.2105V22.1368C44.2105 23.8421 45.6 25.2632 47.3368 25.2316H47.4316C49.1368 25.2316 50.5263 23.8421 50.5263 22.1368V15.7895H56.9053C58.6105 15.7895 60 14.4 60 12.6947V12.5684C60 10.8632 58.6105 9.47368 56.9053 9.47368ZM41.0526 22.1368V18.9474H37.8632C36.1895 18.9474 34.6105 18.2842 33.4105 17.1158C32.2421 15.9158 31.5789 14.3368 31.5789 12.5684C31.5789 11.4316 31.8947 10.3895 32.4316 9.47368H6.31579C2.84211 9.47368 0 12.3158 0 15.7895V53.6842C0 57.1579 2.84211 60 6.31579 60H44.2105C47.6842 60 50.5263 57.1579 50.5263 53.6842V27.5368C49.5789 28.0737 48.5053 28.4211 47.3053 28.4211C43.8632 28.3895 41.0526 25.5789 41.0526 22.1368ZM40.9263 53.6842H9.47368C8.17895 53.6842 7.42105 52.2 8.21053 51.1579L14.4632 42.8526C15.1263 41.9684 16.4211 42.0316 17.0526 42.9158L22.1053 50.5263L30.3474 39.5368C30.9789 38.7158 32.2105 38.6842 32.8421 39.5053L42.1579 51.1263C42.979 52.1684 42.2526 53.6842 40.9263 53.6842Z" fill="#7C7C7C"/>
</svg>
